<svg width="66" height="50" viewBox="0 0 66 50" fill="none" xmlns="http://www.w3.org/2000/svg">
<path d="M58.983 0H20.5049C19.5086 0.00122859 18.524 0.214643 17.6166 0.62604C16.7092 1.03744 15.8998 1.63738 15.2424 2.38594C15.1285 2.51579 15.0285 2.65718 14.9439 2.80781L0.993935 23.7109C0.759724 24.1001 0.635971 24.5458 0.635971 25C0.635971 25.4542 0.759724 25.8999 0.993935 26.2891L14.9236 47.1594C15.0112 47.3202 15.116 47.4711 15.2361 47.6094C15.8934 48.3593 16.7031 48.9604 17.6111 49.3726C18.5191 49.7848 19.5046 49.9987 20.5017 50H58.983C60.8418 49.9979 62.6238 49.2586 63.9382 47.9443C65.2525 46.6299 65.9919 44.8478 65.9939 42.9891V7.01094C65.9919 5.15215 65.2525 3.3701 63.9382 2.05574C62.6238 0.741383 60.8418 0.00206784 58.983 0ZM50.3689 33.5938C50.6066 33.8247 50.796 34.1005 50.9261 34.4053C51.0562 34.7101 51.1244 35.0377 51.1267 35.3691C51.1291 35.7004 51.0655 36.029 50.9398 36.3356C50.814 36.6421 50.6285 36.9207 50.3942 37.1549C50.1598 37.3892 49.8812 37.5745 49.5745 37.7002C49.2679 37.8258 48.9393 37.8892 48.608 37.8867C48.2766 37.8842 47.949 37.8159 47.6443 37.6856C47.3396 37.5554 47.0638 37.3659 46.833 37.1281L38.4424 28.75L30.0564 37.1328C29.5871 37.6021 28.9506 37.8658 28.2869 37.8658C27.6232 37.8658 26.9867 37.6021 26.5174 37.1328C26.0481 36.6635 25.7844 36.027 25.7844 35.3633C25.7844 34.6996 26.0481 34.0631 26.5174 33.5938L34.9002 25.2078L26.5111 16.8188C26.042 16.3486 25.7789 15.7114 25.7796 15.0472C25.7804 14.3831 26.0449 13.7464 26.515 13.2773C26.9852 12.8082 27.6224 12.5451 28.2865 12.5458C28.9507 12.5466 29.5873 12.8111 30.0564 13.2812L38.4455 21.6719L46.8314 13.2812C47.3005 12.8121 47.9368 12.5486 48.6002 12.5486C49.2636 12.5486 49.8998 12.8121 50.3689 13.2812C50.838 13.7504 51.1016 14.3866 51.1016 15.05C51.1016 15.7134 50.838 16.3496 50.3689 16.8188L41.9783 25.2078L50.3689 33.5938Z" fill="white"/>
</svg>
